<svg xmlns="http://www.w3.org/2000/svg" viewBox="0 0 1024 1024" fill="black" stroke="black" stroke-width="2">
<path d="
    M 330,30
    C 270,120 0,130 330,200
    C 1300,280 280,0 330,160
    Z"
    fill="black"
    stroke="black"
    stroke-width="2"/>
  <path d="M 489 467
L 488 468
L 477 468
L 476 469
L 469 469
L 468 470
L 463 470
L 462 471
L 459 471
L 458 472
L 456 472
L 455 473
L 453 473
L 452 474
L 451 474
L 450 475
L 449 475
L 448 476
L 447 476
L 446 477
L 445 477
L 442 480
L 441 480
L 436 485
L 436 486
L 433 489
L 433 490
L 432 491
L 432 492
L 431 493
L 431 494
L 430 495
L 430 496
L 429 497
L 429 498
L 428 499
L 428 502
L 427 503
L 427 505
L 426 506
L 426 514
L 425 515
L 425 516
L 426 517
L 426 526
L 427 527
L 427 530
L 428 531
L 428 534
L 429 535
L 429 536
L 430 537
L 430 539
L 431 540
L 431 541
L 432 542
L 432 544
L 433 545
L 433 546
L 434 547
L 434 548
L 435 549
L 435 550
L 436 551
L 436 552
L 438 554
L 438 555
L 439 556
L 439 557
L 442 560
L 442 561
L 445 564
L 445 565
L 451 571
L 451 572
L 462 583
L 463 583
L 467 587
L 468 587
L 471 590
L 472 590
L 474 592
L 475 592
L 476 593
L 477 593
L 479 595
L 480 595
L 481 596
L 482 596
L 483 597
L 484 597
L 485 598
L 487 598
L 488 599
L 490 599
L 491 600
L 492 600
L 493 601
L 495 601
L 496 602
L 499 602
L 500 603
L 501 603
L 502 604
L 501 605
L 501 631
L 500 632
L 500 643
L 498 645
L 497 645
L 496 646
L 495 646
L 494 647
L 493 647
L 491 649
L 490 649
L 488 651
L 487 651
L 480 658
L 479 658
L 474 663
L 473 663
L 470 666
L 469 666
L 466 669
L 465 669
L 463 671
L 462 671
L 460 673
L 459 673
L 457 675
L 456 675
L 454 677
L 453 677
L 452 678
L 451 678
L 450 679
L 449 679
L 447 681
L 446 681
L 445 682
L 444 682
L 443 683
L 442 683
L 441 684
L 439 684
L 438 685
L 437 685
L 436 686
L 435 686
L 434 687
L 432 687
L 431 688
L 430 688
L 429 689
L 426 689
L 425 690
L 423 690
L 422 691
L 419 691
L 418 692
L 413 692
L 412 693
L 397 693
L 396 692
L 392 692
L 391 691
L 388 691
L 387 690
L 385 690
L 384 689
L 382 689
L 381 688
L 380 688
L 379 687
L 378 687
L 376 685
L 375 685
L 374 684
L 373 684
L 370 681
L 369 681
L 358 670
L 358 669
L 355 666
L 355 665
L 353 663
L 353 662
L 351 660
L 351 659
L 350 658
L 350 657
L 349 656
L 349 655
L 348 654
L 348 653
L 347 652
L 347 651
L 346 650
L 346 649
L 345 648
L 345 647
L 344 646
L 344 644
L 343 643
L 343 641
L 342 640
L 342 638
L 341 637
L 341 634
L 340 633
L 340 630
L 339 629
L 339 624
L 338 623
L 338 616
L 337 615
L 337 596
L 338 595
L 338 588
L 339 587
L 339 582
L 340 581
L 340 577
L 341 576
L 341 574
L 342 573
L 342 571
L 343 570
L 343 568
L 344 567
L 344 566
L 345 565
L 345 564
L 346 563
L 346 562
L 347 561
L 347 560
L 348 559
L 348 550
L 347 549
L 347 548
L 344 545
L 343 545
L 342 544
L 341 544
L 340 543
L 337 543
L 336 544
L 334 544
L 332 546
L 331 546
L 328 549
L 328 550
L 326 552
L 326 553
L 325 554
L 325 555
L 324 556
L 324 557
L 323 558
L 323 559
L 322 560
L 322 561
L 321 562
L 321 564
L 320 565
L 320 567
L 319 568
L 319 571
L 318 572
L 318 575
L 317 576
L 317 581
L 316 582
L 316 587
L 315 588
L 315 595
L 314 596
L 314 617
L 315 618
L 315 624
L 316 625
L 316 629
L 317 630
L 317 633
L 318 634
L 318 637
L 319 638
L 319 640
L 320 641
L 320 644
L 321 645
L 321 647
L 322 648
L 322 649
L 323 650
L 323 652
L 324 653
L 324 654
L 325 655
L 325 657
L 326 658
L 326 659
L 327 660
L 327 661
L 328 662
L 328 663
L 329 664
L 329 665
L 330 666
L 330 667
L 331 668
L 331 669
L 332 670
L 332 671
L 334 673
L 334 674
L 336 676
L 336 677
L 338 679
L 338 680
L 342 684
L 342 685
L 356 699
L 357 699
L 360 702
L 361 702
L 363 704
L 364 704
L 365 705
L 366 705
L 367 706
L 368 706
L 370 708
L 372 708
L 373 709
L 374 709
L 375 710
L 376 710
L 377 711
L 379 711
L 380 712
L 382 712
L 383 713
L 386 713
L 387 714
L 391 714
L 392 715
L 394 715
L 395 716
L 395 718
L 396 719
L 396 720
L 397 721
L 397 722
L 398 723
L 398 724
L 399 725
L 399 726
L 400 727
L 400 728
L 401 729
L 401 730
L 403 732
L 403 733
L 405 735
L 405 736
L 407 738
L 407 739
L 421 753
L 422 753
L 425 756
L 426 756
L 429 759
L 430 759
L 431 760
L 432 760
L 434 762
L 435 762
L 436 763
L 437 763
L 439 765
L 440 765
L 441 766
L 442 766
L 443 767
L 444 767
L 445 768
L 447 768
L 448 769
L 449 769
L 450 770
L 451 770
L 452 771
L 454 771
L 455 772
L 456 772
L 457 773
L 459 773
L 460 774
L 462 774
L 463 775
L 465 775
L 466 776
L 468 776
L 469 777
L 472 777
L 473 778
L 475 778
L 476 779
L 480 779
L 481 780
L 485 780
L 486 781
L 492 781
L 493 782
L 503 782
L 504 783
L 521 783
L 522 782
L 531 782
L 532 781
L 538 781
L 539 780
L 543 780
L 544 779
L 547 779
L 548 778
L 551 778
L 552 777
L 554 777
L 555 776
L 557 776
L 558 775
L 560 775
L 561 774
L 562 774
L 563 773
L 565 773
L 566 772
L 567 772
L 568 771
L 569 771
L 570 770
L 571 770
L 572 769
L 574 769
L 575 768
L 576 768
L 577 767
L 578 767
L 579 766
L 580 766
L 581 765
L 582 765
L 584 763
L 585 763
L 586 762
L 587 762
L 589 760
L 590 760
L 592 758
L 593 758
L 595 756
L 596 756
L 599 753
L 600 753
L 605 748
L 606 748
L 610 744
L 610 743
L 616 737
L 616 736
L 618 734
L 618 733
L 621 730
L 621 729
L 622 728
L 622 727
L 623 726
L 623 725
L 624 724
L 624 723
L 625 722
L 625 720
L 626 719
L 626 716
L 627 715
L 628 715
L 629 714
L 635 714
L 636 713
L 640 713
L 641 712
L 643 712
L 644 711
L 645 711
L 646 710
L 648 710
L 649 709
L 650 709
L 651 708
L 652 708
L 653 707
L 654 707
L 655 706
L 656 706
L 657 705
L 658 705
L 660 703
L 661 703
L 663 701
L 664 701
L 668 697
L 669 697
L 680 686
L 680 685
L 684 681
L 684 680
L 686 678
L 686 677
L 688 675
L 688 674
L 689 673
L 689 672
L 691 670
L 691 669
L 692 668
L 692 667
L 693 666
L 693 665
L 694 664
L 694 663
L 695 662
L 695 661
L 696 660
L 696 658
L 697 657
L 697 656
L 698 655
L 698 653
L 699 652
L 699 651
L 700 650
L 700 648
L 701 647
L 701 646
L 702 645
L 702 642
L 703 641
L 703 639
L 704 638
L 704 636
L 705 635
L 705 632
L 706 631
L 706 627
L 707 626
L 707 621
L 708 620
L 708 588
L 707 587
L 707 582
L 706 581
L 706 576
L 705 575
L 705 572
L 704 571
L 704 569
L 703 568
L 703 566
L 702 565
L 702 563
L 701 562
L 701 560
L 700 559
L 700 558
L 699 557
L 699 556
L 698 555
L 698 554
L 696 552
L 696 551
L 694 549
L 694 548
L 691 545
L 690 545
L 689 544
L 682 544
L 681 545
L 680 545
L 678 547
L 677 547
L 677 548
L 676 549
L 676 550
L 675 551
L 675 559
L 676 560
L 676 561
L 677 562
L 677 563
L 678 564
L 678 565
L 679 566
L 679 567
L 680 568
L 680 570
L 681 571
L 681 573
L 682 574
L 682 576
L 683 577
L 683 581
L 684 582
L 684 587
L 685 588
L 685 603
L 686 604
L 685 605
L 685 617
L 684 618
L 684 624
L 683 625
L 683 629
L 682 630
L 682 633
L 681 634
L 681 637
L 680 638
L 680 640
L 679 641
L 679 643
L 678 644
L 678 646
L 677 647
L 677 648
L 676 649
L 676 650
L 675 651
L 675 652
L 674 653
L 674 654
L 673 655
L 673 656
L 672 657
L 672 658
L 671 659
L 671 660
L 670 661
L 670 662
L 668 664
L 668 665
L 665 668
L 665 669
L 659 675
L 659 676
L 657 678
L 656 678
L 651 683
L 650 683
L 648 685
L 647 685
L 646 686
L 645 686
L 644 687
L 643 687
L 642 688
L 641 688
L 640 689
L 639 689
L 638 690
L 636 690
L 635 691
L 632 691
L 631 692
L 628 692
L 627 693
L 609 693
L 608 692
L 604 692
L 603 691
L 600 691
L 599 690
L 596 690
L 595 689
L 593 689
L 592 688
L 591 688
L 590 687
L 588 687
L 587 686
L 586 686
L 585 685
L 583 685
L 582 684
L 581 684
L 580 683
L 579 683
L 578 682
L 577 682
L 576 681
L 575 681
L 573 679
L 572 679
L 571 678
L 570 678
L 568 676
L 567 676
L 566 675
L 565 675
L 563 673
L 562 673
L 560 671
L 559 671
L 556 668
L 555 668
L 552 665
L 551 665
L 547 661
L 546 661
L 539 654
L 538 654
L 535 651
L 534 651
L 532 649
L 531 649
L 530 648
L 529 648
L 528 647
L 527 647
L 526 646
L 525 646
L 524 645
L 524 641
L 523 640
L 523 620
L 522 619
L 522 604
L 524 602
L 527 602
L 528 601
L 530 601
L 531 600
L 533 600
L 534 599
L 535 599
L 536 598
L 538 598
L 539 597
L 540 597
L 541 596
L 542 596
L 544 594
L 545 594
L 546 593
L 547 593
L 548 592
L 549 592
L 551 590
L 552 590
L 555 587
L 556 587
L 560 583
L 561 583
L 571 573
L 571 572
L 578 565
L 578 564
L 581 561
L 581 560
L 584 557
L 584 556
L 585 555
L 585 554
L 587 552
L 587 551
L 588 550
L 588 549
L 589 548
L 589 547
L 590 546
L 590 545
L 591 544
L 591 543
L 592 542
L 592 540
L 593 539
L 593 537
L 594 536
L 594 534
L 595 533
L 595 530
L 596 529
L 596 525
L 597 524
L 597 509
L 596 508
L 596 504
L 595 503
L 595 501
L 594 500
L 594 498
L 593 497
L 593 496
L 592 495
L 592 494
L 591 493
L 591 492
L 590 491
L 590 490
L 588 488
L 588 487
L 580 479
L 579 479
L 577 477
L 576 477
L 574 475
L 573 475
L 572 474
L 571 474
L 570 473
L 568 473
L 567 472
L 565 472
L 564 471
L 562 471
L 561 470
L 557 470
L 556 469
L 550 469
L 549 468
L 538 468
L 537 467
Z
M 640 337
L 639 338
L 636 338
L 635 339
L 633 339
L 632 340
L 631 340
L 630 341
L 629 341
L 628 342
L 627 342
L 626 343
L 625 343
L 622 346
L 621 346
L 618 349
L 618 350
L 615 353
L 615 354
L 613 356
L 613 358
L 612 359
L 612 360
L 611 361
L 611 363
L 610 364
L 610 367
L 609 368
L 609 380
L 610 381
L 610 385
L 611 386
L 611 388
L 612 389
L 612 390
L 613 391
L 613 392
L 614 393
L 614 394
L 616 396
L 616 397
L 624 405
L 625 405
L 627 407
L 628 407
L 629 408
L 630 408
L 631 409
L 633 409
L 634 410
L 636 410
L 637 411
L 640 411
L 641 412
L 652 412
L 653 411
L 656 411
L 657 410
L 659 410
L 660 409
L 662 409
L 663 408
L 664 408
L 665 407
L 666 407
L 668 405
L 669 405
L 678 396
L 678 395
L 680 393
L 680 392
L 681 391
L 681 389
L 682 388
L 682 387
L 683 386
L 683 383
L 684 382
L 684 367
L 683 366
L 683 363
L 682 362
L 682 360
L 681 359
L 681 358
L 680 357
L 680 356
L 678 354
L 678 353
L 675 350
L 675 349
L 672 346
L 671 346
L 668 343
L 667 343
L 666 342
L 665 342
L 664 341
L 663 341
L 662 340
L 661 340
L 660 339
L 658 339
L 657 338
L 653 338
L 652 337
Z
M 370 337
L 369 338
L 366 338
L 365 339
L 363 339
L 362 340
L 360 340
L 359 341
L 358 341
L 356 343
L 355 343
L 353 345
L 352 345
L 346 351
L 346 352
L 344 354
L 344 355
L 343 356
L 343 357
L 342 358
L 342 359
L 341 360
L 341 361
L 340 362
L 340 365
L 339 366
L 339 371
L 338 372
L 338 377
L 339 378
L 339 383
L 340 384
L 340 386
L 341 387
L 341 389
L 342 390
L 342 391
L 343 392
L 343 393
L 344 394
L 344 395
L 347 398
L 347 399
L 351 403
L 352 403
L 355 406
L 356 406
L 357 407
L 358 407
L 359 408
L 360 408
L 361 409
L 362 409
L 363 410
L 365 410
L 366 411
L 370 411
L 371 412
L 381 412
L 382 411
L 386 411
L 387 410
L 389 410
L 390 409
L 392 409
L 393 408
L 394 408
L 396 406
L 397 406
L 399 404
L 400 404
L 407 397
L 407 396
L 409 394
L 409 393
L 410 392
L 410 391
L 411 390
L 411 389
L 412 388
L 412 386
L 413 385
L 413 382
L 414 381
L 414 368
L 413 367
L 413 364
L 412 363
L 412 361
L 411 360
L 411 359
L 410 358
L 410 357
L 409 356
L 409 355
L 408 354
L 408 353
L 399 344
L 398 344
L 396 342
L 395 342
L 394 341
L 393 341
L 392 340
L 390 340
L 389 339
L 388 339
L 387 338
L 383 338
L 382 337
Z
M 494 106
L 493 107
L 478 107
L 477 108
L 467 108
L 466 109
L 458 109
L 457 110
L 451 110
L 450 111
L 445 111
L 444 112
L 439 112
L 438 113
L 434 113
L 433 114
L 429 114
L 428 115
L 424 115
L 423 116
L 420 116
L 419 117
L 416 117
L 415 118
L 412 118
L 411 119
L 409 119
L 408 120
L 405 120
L 404 121
L 402 121
L 401 122
L 399 122
L 398 123
L 396 123
L 395 124
L 393 124
L 392 125
L 390 125
L 389 126
L 387 126
L 386 127
L 384 127
L 383 128
L 382 128
L 381 129
L 379 129
L 378 130
L 377 130
L 376 131
L 374 131
L 373 132
L 372 132
L 371 133
L 369 133
L 368 134
L 367 134
L 366 135
L 365 135
L 364 136
L 363 136
L 362 137
L 360 137
L 359 138
L 358 138
L 357 139
L 356 139
L 355 140
L 354 140
L 353 141
L 352 141
L 351 142
L 350 142
L 348 144
L 347 144
L 346 145
L 345 145
L 344 146
L 343 146
L 341 148
L 340 148
L 339 149
L 338 149
L 336 151
L 335 151
L 333 153
L 332 153
L 330 155
L 329 155
L 327 157
L 326 157
L 324 159
L 323 159
L 322 158
L 321 158
L 320 157
L 319 157
L 318 156
L 316 156
L 315 155
L 313 155
L 312 154
L 310 154
L 309 153
L 304 153
L 303 152
L 285 152
L 284 153
L 280 153
L 279 154
L 276 154
L 275 155
L 272 155
L 271 156
L 270 156
L 269 157
L 267 157
L 266 158
L 265 158
L 264 159
L 263 159
L 262 160
L 261 160
L 260 161
L 258 161
L 256 163
L 255 163
L 254 164
L 253 164
L 252 165
L 251 165
L 249 167
L 248 167
L 247 168
L 246 168
L 244 170
L 243 170
L 241 172
L 240 172
L 238 174
L 237 174
L 235 176
L 234 176
L 231 179
L 230 179
L 227 182
L 226 182
L 222 186
L 221 186
L 218 189
L 217 189
L 214 192
L 213 192
L 210 195
L 209 195
L 206 198
L 205 198
L 202 201
L 201 201
L 197 205
L 196 205
L 193 208
L 192 208
L 188 212
L 187 212
L 184 215
L 183 215
L 180 218
L 179 218
L 176 221
L 175 221
L 171 225
L 170 225
L 168 227
L 167 227
L 164 230
L 163 230
L 160 233
L 159 233
L 155 237
L 154 237
L 151 240
L 150 240
L 147 243
L 146 243
L 143 246
L 142 246
L 138 250
L 137 250
L 133 254
L 132 254
L 128 258
L 127 258
L 122 263
L 121 263
L 116 268
L 115 268
L 108 275
L 107 275
L 100 282
L 99 282
L 87 294
L 86 294
L 70 310
L 70 311
L 64 317
L 64 318
L 61 321
L 61 322
L 59 324
L 59 325
L 57 327
L 57 328
L 56 329
L 56 330
L 54 332
L 54 333
L 53 334
L 53 336
L 52 337
L 52 338
L 51 339
L 51 341
L 50 342
L 50 344
L 49 345
L 49 347
L 48 348
L 48 352
L 47 353
L 47 364
L 46 365
L 46 372
L 47 373
L 47 384
L 48 385
L 48 391
L 49 392
L 49 396
L 50 397
L 50 400
L 51 401
L 51 404
L 52 405
L 52 408
L 53 409
L 53 411
L 54 412
L 54 415
L 55 416
L 55 418
L 56 419
L 56 421
L 57 422
L 57 424
L 58 425
L 58 427
L 59 428
L 59 429
L 60 430
L 60 432
L 61 433
L 61 435
L 62 436
L 62 437
L 63 438
L 63 440
L 64 441
L 64 442
L 65 443
L 65 444
L 66 445
L 66 446
L 67 447
L 67 449
L 68 450
L 68 451
L 69 452
L 69 453
L 70 454
L 70 455
L 71 456
L 71 457
L 72 458
L 72 459
L 73 460
L 73 461
L 74 462
L 74 463
L 75 464
L 75 465
L 76 466
L 76 467
L 77 468
L 77 469
L 78 470
L 78 471
L 79 472
L 79 473
L 81 475
L 81 476
L 82 477
L 82 478
L 83 479
L 83 480
L 85 482
L 85 483
L 86 484
L 86 485
L 88 487
L 88 488
L 90 490
L 90 491
L 92 493
L 92 494
L 93 495
L 93 496
L 95 498
L 95 499
L 97 501
L 97 502
L 99 504
L 99 505
L 101 507
L 101 508
L 103 510
L 103 511
L 106 514
L 106 515
L 108 517
L 108 518
L 110 520
L 110 521
L 112 523
L 112 524
L 114 526
L 114 527
L 116 529
L 116 530
L 118 532
L 118 533
L 119 534
L 119 535
L 121 537
L 121 538
L 122 539
L 122 540
L 123 541
L 123 542
L 124 543
L 124 544
L 125 545
L 125 547
L 126 548
L 126 549
L 127 550
L 127 552
L 128 553
L 128 556
L 129 557
L 129 559
L 130 560
L 130 565
L 131 566
L 131 571
L 132 572
L 132 579
L 133 580
L 133 591
L 134 592
L 134 602
L 135 603
L 135 609
L 136 610
L 136 613
L 137 614
L 137 616
L 138 617
L 138 619
L 139 620
L 139 622
L 140 623
L 140 624
L 141 625
L 141 626
L 142 627
L 142 628
L 144 630
L 144 631
L 148 635
L 148 636
L 149 637
L 150 637
L 154 641
L 155 641
L 157 643
L 158 643
L 159 644
L 161 644
L 162 645
L 164 645
L 165 646
L 169 646
L 170 647
L 179 647
L 180 646
L 185 646
L 186 645
L 188 645
L 189 644
L 191 644
L 192 643
L 194 643
L 195 642
L 197 642
L 198 641
L 199 641
L 200 640
L 201 640
L 202 639
L 203 639
L 204 638
L 205 638
L 206 637
L 207 637
L 208 636
L 209 636
L 211 634
L 212 634
L 214 632
L 215 632
L 230 617
L 230 616
L 233 613
L 233 612
L 235 610
L 235 609
L 237 607
L 237 606
L 238 605
L 238 604
L 240 602
L 240 601
L 241 600
L 241 599
L 242 598
L 242 597
L 243 596
L 243 595
L 244 594
L 244 593
L 245 592
L 245 591
L 246 590
L 246 589
L 247 588
L 247 587
L 248 586
L 248 584
L 249 583
L 249 582
L 250 581
L 250 579
L 251 578
L 251 576
L 252 575
L 252 574
L 253 573
L 253 571
L 254 570
L 254 568
L 255 567
L 255 564
L 256 563
L 256 561
L 257 560
L 257 557
L 258 556
L 260 558
L 260 561
L 261 562
L 261 564
L 262 565
L 262 567
L 263 568
L 263 570
L 264 571
L 264 572
L 265 573
L 265 575
L 266 576
L 266 577
L 267 578
L 267 580
L 268 581
L 268 583
L 269 584
L 269 585
L 270 586
L 270 588
L 271 589
L 271 591
L 272 592
L 272 595
L 273 596
L 273 598
L 274 599
L 274 601
L 275 602
L 275 605
L 276 606
L 276 610
L 277 611
L 277 614
L 278 615
L 278 618
L 279 619
L 279 623
L 280 624
L 280 628
L 281 629
L 281 636
L 282 637
L 282 671
L 281 672
L 281 680
L 280 681
L 280 686
L 279 687
L 279 692
L 278 693
L 278 698
L 277 699
L 277 703
L 276 704
L 276 708
L 275 709
L 275 714
L 274 715
L 274 720
L 273 721
L 273 727
L 272 728
L 272 736
L 271 737
L 271 749
L 270 750
L 270 762
L 271 763
L 271 776
L 272 777
L 272 783
L 273 784
L 273 788
L 274 789
L 274 793
L 275 794
L 275 797
L 276 798
L 276 801
L 277 802
L 277 804
L 278 805
L 278 808
L 279 809
L 279 811
L 280 812
L 280 814
L 281 815
L 281 816
L 282 817
L 282 819
L 283 820
L 283 822
L 284 823
L 284 824
L 285 825
L 285 826
L 286 827
L 286 829
L 287 830
L 287 831
L 288 832
L 288 833
L 289 834
L 289 835
L 290 836
L 290 837
L 291 838
L 291 839
L 292 840
L 292 841
L 294 843
L 294 844
L 295 845
L 295 846
L 297 848
L 297 849
L 298 850
L 298 851
L 300 853
L 300 854
L 302 856
L 302 857
L 304 859
L 304 860
L 307 863
L 307 864
L 310 867
L 310 868
L 314 872
L 314 873
L 332 891
L 333 891
L 334 892
L 335 892
L 336 893
L 337 893
L 338 894
L 342 894
L 343 893
L 345 893
L 346 892
L 347 892
L 350 889
L 350 888
L 351 887
L 351 881
L 350 880
L 350 879
L 331 860
L 331 859
L 327 855
L 327 854
L 324 851
L 324 850
L 322 848
L 322 847
L 320 845
L 320 844
L 318 842
L 318 841
L 317 840
L 317 839
L 315 837
L 315 836
L 314 835
L 314 834
L 313 833
L 313 832
L 312 831
L 312 830
L 310 828
L 310 826
L 308 824
L 308 823
L 307 822
L 307 820
L 306 819
L 306 818
L 305 817
L 305 816
L 304 815
L 304 813
L 303 812
L 303 811
L 302 810
L 302 808
L 301 807
L 301 805
L 300 804
L 300 802
L 299 801
L 299 799
L 298 798
L 298 795
L 297 794
L 297 790
L 296 789
L 296 786
L 295 785
L 295 780
L 294 779
L 294 772
L 293 771
L 293 742
L 294 741
L 294 733
L 295 732
L 295 726
L 296 725
L 296 720
L 297 719
L 297 715
L 298 714
L 298 709
L 299 708
L 299 704
L 300 703
L 300 699
L 301 698
L 301 693
L 302 692
L 302 686
L 303 685
L 303 679
L 304 678
L 304 669
L 305 668
L 305 649
L 306 648
L 305 647
L 305 632
L 304 631
L 304 624
L 303 623
L 303 618
L 302 617
L 302 614
L 301 613
L 301 609
L 300 608
L 300 605
L 299 604
L 299 602
L 298 601
L 298 599
L 297 598
L 297 595
L 296 594
L 296 593
L 295 592
L 295 590
L 294 589
L 294 587
L 293 586
L 293 585
L 292 584
L 292 582
L 291 581
L 291 580
L 290 579
L 290 577
L 289 576
L 289 575
L 288 574
L 288 572
L 287 571
L 287 570
L 286 569
L 286 567
L 285 566
L 285 564
L 284 563
L 284 561
L 283 560
L 283 559
L 282 558
L 282 556
L 281 555
L 281 552
L 280 551
L 280 549
L 279 548
L 279 546
L 278 545
L 278 542
L 277 541
L 277 538
L 276 537
L 276 534
L 275 533
L 275 530
L 274 529
L 274 526
L 273 525
L 273 522
L 272 521
L 272 518
L 271 517
L 271 513
L 270 512
L 270 508
L 269 507
L 269 502
L 268 501
L 268 494
L 267 493
L 267 483
L 266 482
L 266 465
L 265 464
L 265 454
L 264 453
L 264 448
L 263 447
L 263 443
L 262 442
L 262 438
L 261 437
L 261 432
L 260 431
L 260 427
L 259 426
L 259 421
L 258 420
L 258 415
L 257 414
L 257 408
L 256 407
L 256 399
L 255 398
L 255 366
L 256 365
L 256 356
L 257 355
L 257 348
L 258 347
L 258 341
L 259 340
L 259 334
L 260 333
L 260 329
L 261 328
L 261 323
L 262 322
L 262 318
L 263 317
L 263 313
L 264 312
L 264 308
L 265 307
L 265 304
L 266 303
L 266 299
L 267 298
L 267 295
L 268 294
L 268 291
L 269 290
L 269 287
L 270 286
L 270 284
L 271 283
L 271 280
L 272 279
L 272 276
L 273 275
L 273 273
L 274 272
L 274 270
L 275 269
L 275 267
L 276 266
L 276 264
L 277 263
L 277 261
L 278 260
L 278 258
L 279 257
L 279 256
L 280 255
L 280 253
L 281 252
L 281 250
L 282 249
L 282 248
L 283 247
L 283 246
L 284 245
L 284 243
L 285 242
L 285 241
L 286 240
L 286 239
L 287 238
L 287 237
L 288 236
L 288 235
L 289 234
L 289 233
L 290 232
L 290 231
L 291 230
L 291 229
L 293 227
L 293 226
L 294 225
L 294 224
L 295 223
L 295 222
L 297 220
L 297 219
L 299 217
L 299 216
L 301 214
L 301 213
L 303 211
L 303 210
L 306 207
L 306 206
L 310 202
L 310 201
L 326 185
L 327 185
L 332 180
L 333 180
L 336 177
L 337 177
L 340 174
L 341 174
L 343 172
L 344 172
L 346 170
L 347 170
L 349 168
L 350 168
L 351 167
L 352 167
L 354 165
L 355 165
L 356 164
L 357 164
L 358 163
L 359 163
L 360 162
L 361 162
L 362 161
L 363 161
L 364 160
L 365 160
L 366 159
L 367 159
L 368 158
L 369 158
L 370 157
L 371 157
L 372 156
L 373 156
L 374 155
L 375 155
L 376 154
L 377 154
L 378 153
L 380 153
L 381 152
L 382 152
L 383 151
L 385 151
L 386 150
L 387 150
L 388 149
L 390 149
L 391 148
L 393 148
L 394 147
L 395 147
L 396 146
L 398 146
L 399 145
L 401 145
L 402 144
L 404 144
L 405 143
L 408 143
L 409 142
L 411 142
L 412 141
L 415 141
L 416 140
L 418 140
L 419 139
L 423 139
L 424 138
L 427 138
L 428 137
L 431 137
L 432 136
L 436 136
L 437 135
L 441 135
L 442 134
L 446 134
L 447 133
L 452 133
L 453 132
L 459 132
L 460 131
L 466 131
L 467 130
L 476 130
L 477 129
L 489 129
L 490 128
L 531 128
L 532 129
L 545 129
L 546 130
L 554 130
L 555 131
L 562 131
L 563 132
L 569 132
L 570 133
L 575 133
L 576 134
L 581 134
L 582 135
L 586 135
L 587 136
L 591 136
L 592 137
L 596 137
L 597 138
L 600 138
L 601 139
L 604 139
L 605 140
L 608 140
L 609 141
L 612 141
L 613 142
L 615 142
L 616 143
L 619 143
L 620 144
L 621 144
L 622 145
L 625 145
L 626 146
L 627 146
L 628 147
L 630 147
L 631 148
L 633 148
L 634 149
L 636 149
L 637 150
L 638 150
L 639 151
L 641 151
L 642 152
L 643 152
L 644 153
L 645 153
L 646 154
L 647 154
L 648 155
L 650 155
L 651 156
L 652 156
L 653 157
L 654 157
L 655 158
L 656 158
L 657 159
L 658 159
L 659 160
L 660 160
L 662 162
L 663 162
L 664 163
L 665 163
L 666 164
L 667 164
L 669 166
L 670 166
L 671 167
L 672 167
L 673 168
L 674 168
L 676 170
L 677 170
L 679 172
L 680 172
L 682 174
L 683 174
L 686 177
L 687 177
L 690 180
L 691 180
L 695 184
L 696 184
L 716 204
L 716 205
L 719 208
L 719 209
L 722 212
L 722 213
L 724 215
L 724 216
L 726 218
L 726 219
L 727 220
L 727 221
L 729 223
L 729 224
L 730 225
L 730 226
L 732 228
L 732 229
L 733 230
L 733 231
L 734 232
L 734 233
L 735 234
L 735 235
L 736 236
L 736 237
L 737 238
L 737 239
L 738 240
L 738 241
L 739 242
L 739 243
L 740 244
L 740 245
L 741 246
L 741 248
L 742 249
L 742 250
L 743 251
L 743 253
L 744 254
L 744 256
L 745 257
L 745 258
L 746 259
L 746 261
L 747 262
L 747 264
L 748 265
L 748 267
L 749 268
L 749 270
L 750 271
L 750 274
L 751 275
L 751 277
L 752 278
L 752 281
L 753 282
L 753 284
L 754 285
L 754 288
L 755 289
L 755 292
L 756 293
L 756 296
L 757 297
L 757 301
L 758 302
L 758 305
L 759 306
L 759 310
L 760 311
L 760 315
L 761 316
L 761 320
L 762 321
L 762 326
L 763 327
L 763 332
L 764 333
L 764 338
L 765 339
L 765 344
L 766 345
L 766 352
L 767 353
L 767 361
L 768 362
L 768 400
L 767 401
L 767 409
L 766 410
L 766 416
L 765 417
L 765 422
L 764 423
L 764 427
L 763 428
L 763 433
L 762 434
L 762 438
L 761 439
L 761 443
L 760 444
L 760 449
L 759 450
L 759 455
L 758 456
L 758 469
L 757 470
L 757 483
L 756 484
L 756 494
L 755 495
L 755 501
L 754 502
L 754 507
L 753 508
L 753 512
L 752 513
L 752 517
L 751 518
L 751 521
L 750 522
L 750 525
L 749 526
L 749 529
L 748 530
L 748 533
L 747 534
L 747 537
L 746 538
L 746 541
L 745 542
L 745 544
L 744 545
L 744 548
L 743 549
L 743 551
L 742 552
L 742 554
L 741 555
L 741 557
L 740 558
L 740 560
L 739 561
L 739 563
L 738 564
L 738 566
L 737 567
L 737 568
L 736 569
L 736 571
L 735 572
L 735 574
L 734 575
L 734 576
L 733 577
L 733 579
L 732 580
L 732 581
L 731 582
L 731 583
L 730 584
L 730 586
L 729 587
L 729 589
L 728 590
L 728 591
L 727 592
L 727 594
L 726 595
L 726 597
L 725 598
L 725 601
L 724 602
L 724 604
L 723 605
L 723 608
L 722 609
L 722 612
L 721 613
L 721 617
L 720 618
L 720 622
L 719 623
L 719 629
L 718 630
L 718 638
L 717 639
L 717 663
L 718 664
L 718 673
L 719 674
L 719 681
L 720 682
L 720 687
L 721 688
L 721 693
L 722 694
L 722 698
L 723 699
L 723 703
L 724 704
L 724 708
L 725 709
L 725 713
L 726 714
L 726 719
L 727 720
L 727 725
L 728 726
L 728 731
L 729 732
L 729 740
L 730 741
L 730 773
L 729 774
L 729 780
L 728 781
L 728 786
L 727 787
L 727 790
L 726 791
L 726 795
L 725 796
L 725 799
L 724 800
L 724 802
L 723 803
L 723 805
L 722 806
L 722 808
L 721 809
L 721 811
L 720 812
L 720 813
L 719 814
L 719 816
L 718 817
L 718 818
L 717 819
L 717 820
L 716 821
L 716 822
L 715 823
L 715 824
L 714 825
L 714 826
L 713 827
L 713 828
L 712 829
L 712 830
L 711 831
L 711 832
L 709 834
L 709 835
L 708 836
L 708 837
L 707 838
L 707 839
L 705 841
L 705 842
L 703 844
L 703 845
L 701 847
L 701 848
L 699 850
L 699 851
L 696 854
L 696 855
L 676 875
L 676 876
L 674 878
L 674 879
L 673 880
L 673 882
L 672 883
L 672 886
L 673 887
L 673 889
L 675 891
L 675 892
L 676 893
L 677 893
L 678 894
L 679 894
L 680 895
L 685 895
L 686 894
L 687 894
L 688 893
L 689 893
L 691 891
L 692 891
L 708 875
L 708 874
L 712 870
L 712 869
L 716 865
L 716 864
L 719 861
L 719 860
L 721 858
L 721 857
L 723 855
L 723 854
L 725 852
L 725 851
L 726 850
L 726 849
L 728 847
L 728 846
L 729 845
L 729 844
L 731 842
L 731 841
L 732 840
L 732 839
L 733 838
L 733 837
L 734 836
L 734 835
L 735 834
L 735 833
L 736 832
L 736 831
L 737 830
L 737 829
L 738 828
L 738 826
L 739 825
L 739 824
L 740 823
L 740 822
L 741 821
L 741 819
L 742 818
L 742 816
L 743 815
L 743 813
L 744 812
L 744 810
L 745 809
L 745 807
L 746 806
L 746 804
L 747 803
L 747 800
L 748 799
L 748 797
L 749 796
L 749 792
L 750 791
L 750 787
L 751 786
L 751 780
L 752 779
L 752 771
L 753 770
L 753 745
L 752 744
L 752 734
L 751 733
L 751 727
L 750 726
L 750 721
L 749 720
L 749 715
L 748 714
L 748 710
L 747 709
L 747 705
L 746 704
L 746 699
L 745 698
L 745 694
L 744 693
L 744 689
L 743 688
L 743 683
L 742 682
L 742 676
L 741 675
L 741 662
L 740 661
L 740 648
L 741 647
L 741 636
L 742 635
L 742 629
L 743 628
L 743 624
L 744 623
L 744 620
L 745 619
L 745 615
L 746 614
L 746 611
L 747 610
L 747 607
L 748 606
L 748 603
L 749 602
L 749 600
L 750 599
L 750 596
L 751 595
L 751 593
L 752 592
L 752 590
L 753 589
L 753 587
L 754 586
L 754 584
L 755 583
L 755 582
L 756 581
L 756 579
L 757 578
L 757 577
L 758 576
L 758 574
L 759 573
L 759 571
L 760 570
L 760 569
L 761 568
L 761 566
L 762 565
L 762 563
L 763 562
L 763 560
L 764 559
L 764 557
L 765 556
L 766 557
L 766 560
L 767 561
L 767 563
L 768 564
L 768 567
L 769 568
L 769 570
L 770 571
L 770 573
L 771 574
L 771 576
L 772 577
L 772 579
L 773 580
L 773 581
L 774 582
L 774 584
L 775 585
L 775 586
L 776 587
L 776 588
L 777 589
L 777 591
L 778 592
L 778 593
L 779 594
L 779 595
L 780 596
L 780 597
L 782 599
L 782 600
L 783 601
L 783 602
L 784 603
L 784 604
L 785 605
L 785 606
L 787 608
L 787 609
L 789 611
L 789 612
L 791 614
L 791 615
L 794 618
L 794 619
L 805 630
L 806 630
L 809 633
L 810 633
L 812 635
L 813 635
L 815 637
L 816 637
L 817 638
L 818 638
L 819 639
L 820 639
L 821 640
L 822 640
L 823 641
L 825 641
L 826 642
L 827 642
L 828 643
L 830 643
L 831 644
L 833 644
L 834 645
L 837 645
L 838 646
L 842 646
L 843 647
L 853 647
L 854 646
L 857 646
L 858 645
L 860 645
L 861 644
L 863 644
L 864 643
L 865 643
L 867 641
L 868 641
L 870 639
L 871 639
L 877 633
L 877 632
L 880 629
L 880 628
L 881 627
L 881 626
L 882 625
L 882 624
L 883 623
L 883 622
L 884 621
L 884 619
L 885 618
L 885 616
L 886 615
L 886 613
L 887 612
L 887 608
L 888 607
L 888 602
L 889 601
L 889 592
L 890 591
L 890 579
L 891 578
L 891 572
L 892 571
L 892 566
L 893 565
L 893 561
L 894 560
L 894 557
L 895 556
L 895 554
L 896 553
L 896 551
L 897 550
L 897 548
L 898 547
L 898 546
L 899 545
L 899 543
L 900 542
L 900 541
L 901 540
L 901 539
L 903 537
L 903 536
L 905 534
L 905 533
L 907 531
L 907 530
L 909 528
L 909 527
L 910 526
L 910 525
L 912 523
L 912 522
L 914 520
L 914 519
L 916 517
L 916 516
L 918 514
L 918 513
L 921 510
L 921 509
L 923 507
L 923 506
L 925 504
L 925 503
L 927 501
L 927 500
L 929 498
L 929 497
L 931 495
L 931 494
L 933 492
L 933 491
L 934 490
L 934 489
L 936 487
L 936 486
L 937 485
L 937 484
L 939 482
L 939 481
L 940 480
L 940 479
L 942 477
L 942 476
L 943 475
L 943 474
L 944 473
L 944 472
L 945 471
L 945 470
L 947 468
L 947 467
L 948 466
L 948 465
L 949 464
L 949 463
L 950 462
L 950 461
L 951 460
L 951 459
L 952 458
L 952 457
L 953 456
L 953 455
L 954 454
L 954 452
L 955 451
L 955 450
L 956 449
L 956 448
L 957 447
L 957 446
L 958 445
L 958 443
L 959 442
L 959 441
L 960 440
L 960 438
L 961 437
L 961 436
L 962 435
L 962 433
L 963 432
L 963 431
L 964 430
L 964 428
L 965 427
L 965 425
L 966 424
L 966 422
L 967 421
L 967 419
L 968 418
L 968 416
L 969 415
L 969 413
L 970 412
L 970 409
L 971 408
L 971 405
L 972 404
L 972 401
L 973 400
L 973 397
L 974 396
L 974 391
L 975 390
L 975 384
L 976 383
L 976 354
L 975 353
L 975 349
L 974 348
L 974 345
L 973 344
L 973 342
L 972 341
L 972 339
L 971 338
L 971 337
L 970 336
L 970 335
L 969 334
L 969 333
L 968 332
L 968 331
L 967 330
L 967 329
L 965 327
L 965 326
L 963 324
L 963 323
L 960 320
L 960 319
L 956 315
L 956 314
L 930 288
L 929 288
L 919 278
L 918 278
L 911 271
L 910 271
L 904 265
L 903 265
L 898 260
L 897 260
L 892 255
L 891 255
L 887 251
L 886 251
L 882 247
L 881 247
L 878 244
L 877 244
L 873 240
L 872 240
L 869 237
L 868 237
L 864 233
L 863 233
L 860 230
L 859 230
L 856 227
L 855 227
L 852 224
L 851 224
L 848 221
L 847 221
L 844 218
L 843 218
L 840 215
L 839 215
L 836 212
L 835 212
L 831 208
L 830 208
L 826 204
L 825 204
L 822 201
L 821 201
L 817 197
L 816 197
L 813 194
L 812 194
L 809 191
L 808 191
L 804 187
L 803 187
L 799 183
L 798 183
L 795 180
L 794 180
L 791 177
L 790 177
L 788 175
L 787 175
L 784 172
L 783 172
L 781 170
L 780 170
L 779 169
L 778 169
L 776 167
L 775 167
L 773 165
L 772 165
L 771 164
L 770 164
L 769 163
L 768 163
L 767 162
L 766 162
L 765 161
L 764 161
L 763 160
L 762 160
L 761 159
L 760 159
L 759 158
L 758 158
L 757 157
L 755 157
L 754 156
L 752 156
L 751 155
L 749 155
L 748 154
L 746 154
L 745 153
L 741 153
L 740 152
L 718 152
L 717 153
L 713 153
L 712 154
L 709 154
L 708 155
L 707 155
L 706 156
L 704 156
L 703 157
L 702 157
L 700 159
L 699 159
L 697 157
L 696 157
L 694 155
L 693 155
L 691 153
L 690 153
L 688 151
L 687 151
L 685 149
L 684 149
L 683 148
L 682 148
L 681 147
L 680 147
L 678 145
L 677 145
L 676 144
L 675 144
L 674 143
L 673 143
L 672 142
L 671 142
L 670 141
L 669 141
L 668 140
L 667 140
L 666 139
L 665 139
L 664 138
L 663 138
L 662 137
L 661 137
L 660 136
L 659 136
L 658 135
L 657 135
L 656 134
L 654 134
L 653 133
L 652 133
L 651 132
L 650 132
L 649 131
L 647 131
L 646 130
L 645 130
L 644 129
L 642 129
L 641 128
L 639 128
L 638 127
L 637 127
L 636 126
L 634 126
L 633 125
L 631 125
L 630 124
L 628 124
L 627 123
L 625 123
L 624 122
L 621 122
L 620 121
L 618 121
L 617 120
L 615 120
L 614 119
L 611 119
L 610 118
L 607 118
L 606 117
L 603 117
L 602 116
L 599 116
L 598 115
L 594 115
L 593 114
L 590 114
L 589 113
L 584 113
L 583 112
L 579 112
L 578 111
L 572 111
L 571 110
L 565 110
L 564 109
L 557 109
L 556 108
L 546 108
L 545 107
L 531 107
L 530 106
Z" />
</svg>
